<svg id="Layer_1" data-name="Layer 1" xmlns="http://www.w3.org/2000/svg" viewBox="0 0 384 384"><defs><style>.cls-1{fill:#91918d;}</style></defs><title>arrow-circle-on-right</title><path class="cls-1" d="M0,192q0-52.2,25.8-96.4A192,192,0,0,1,95.7,25.7Q139.8-.1,192,0t96.4,25.8a192,192,0,0,1,69.9,69.9Q384.1,139.8,384,192t-25.8,96.4a192,192,0,0,1-69.9,69.9Q244.2,384.1,192,384T95.6,358.2a192,192,0,0,1-69.9-69.9Q-.1,244.2,0,192Zm56,0a133.19,133.19,0,0,0,18.2,68.2,135.83,135.83,0,0,0,49.5,49.5A132.66,132.66,0,0,0,192,328a133.19,133.19,0,0,0,68.2-18.2,136.59,136.59,0,0,0,49.5-49.5A132.66,132.66,0,0,0,328,192a133.18,133.18,0,0,0-18.2-68.2,135.83,135.83,0,0,0-49.5-49.5A132.92,132.92,0,0,0,192,56a133.19,133.19,0,0,0-68.2,18.2,135.83,135.83,0,0,0-49.5,49.5A132.66,132.66,0,0,0,56,192Zm40,24V168a7.57,7.57,0,0,1,2.4-5.6A7.73,7.73,0,0,1,104,160h88V112a8.53,8.53,0,0,1,2.2-5.8c1.4-1.6,3.4-2.2,5.8-2.2a9.22,9.22,0,0,1,6,2.5l79.8,79.8a7.76,7.76,0,0,1,2.2,5.8,8.34,8.34,0,0,1-2.2,5.8l-80,80a7.76,7.76,0,0,1-5.8,2.2,7.57,7.57,0,0,1-5.6-2.4,7.73,7.73,0,0,1-2.4-5.6v-48H104a7.57,7.57,0,0,1-5.6-2.4A7.79,7.79,0,0,1,96,216Z"/></svg>